<svg id="Layer_1" xmlns="http://www.w3.org/2000/svg" version="1.1" xmlns:xlink="http://www.w3.org/1999/xlink" viewBox="247.32 829.33 1504.92 340.43">
  <!-- Generator: Adobe Illustrator 30.0.0, SVG Export Plug-In . SVG Version: 2.1.1 Build 123)  -->
  <defs>
    <style>
      .st0 {
        fill: url(#linear-gradient1);
      }

      .st1 {
        fill: url(#linear-gradient);
      }
    </style>
    <linearGradient id="linear-gradient" x1="364.21" y1="1074.92" x2="581.88" y2="857.25" gradientUnits="userSpaceOnUse">
      <stop offset="0" stop-color="#00df81"/>
      <stop offset="1" stop-color="#00ff8b"/>
    </linearGradient>
    <linearGradient id="linear-gradient1" x1="403.94" y1="1114.65" x2="621.61" y2="896.98" xlink:href="#linear-gradient"/>
  </defs>
  <g>
    <path class="st1" d="M607.46,986.8c-17.08-18.8-33.87-32.25-50.78-41.1-16.87-8.85-33.94-12.89-50.19-12.86-11.08,0-21.72,1.82-31.76,4.82-15.08,4.51-28.87,11.61-41.8,19.55-12.93,7.95-25.04,16.8-36.6,25.18h0c-6.18,4.47-12.19,8.8-18.03,12.8l-.04.02c-10.22,7.04-19.97,13.02-28.96,17.02-9.02,4.03-17.09,6.04-24.52,6.04-6.96-.04-13.64-1.59-21.57-6.04-7.88-4.46-16.92-12.12-26.86-24.42l-29.02,23.45c12.09,14.95,24.41,25.99,37.45,33.41,12.99,7.43,26.77,10.95,40,10.91,14.21,0,27.47-3.81,39.72-9.28,12.27-5.49,23.72-12.68,34.87-20.33,2.6-1.78,5.17-3.59,7.74-5.41,12.43,9.09,25.55,18.29,39.71,26,9.2,4.99,18.86,9.35,29.12,12.5,10.25,3.14,21.12,5.05,32.45,5.05,15.97.03,32.71-3.88,49.26-12.44,16.59-8.55,33.03-21.55,49.72-39.67l11.56-12.55-11.47-12.63ZM540.58,1018.48c-11.79,6.04-22.11,8.27-32.18,8.3-7.15,0-14.24-1.19-21.52-3.42-10.9-3.33-22.17-9.08-33.64-16.31-4.64-2.92-9.32-6.11-14.01-9.41,8.23-5.63,16.37-10.82,24.39-15.06,7.39-3.92,14.66-7.05,21.78-9.17,7.13-2.12,14.08-3.26,21.09-3.26,10.27.03,20.82,2.34,32.91,8.62,8.58,4.48,17.93,11.13,27.96,20.46-9.58,8.74-18.54,15-26.78,19.24Z"/>
    <path class="st0" d="M662.44,1064.5l9.4,16.19-154.25,89.07-147.42-85.11v-20.48c.63-.26,1.31-.52,1.94-.82,12.61-5.67,24.7-13.21,35.37-20.37v20.15l110.11,63.54,102.91-59.4c-5.75-9.22-11.31-17.69-16.83-25.37-8.25-11.68-16.19-21.6-23.81-30l-11.45-12.61,11.53-12.57c7.65-8.32,15.67-18.25,23.99-29.92,5.37-7.54,10.93-15.86,16.57-24.92l-102.95-59.44-110.07,63.58v74.59h-37.31v-96.12l147.38-85.15,154.29,89.07-9.4,16.19c-11.01,18.88-21.72,35.26-32.24,49.48-3.99,5.45-7.98,10.52-11.94,15.34,3.92,4.81,7.91,9.93,11.9,15.37,10.52,14.33,21.27,30.78,32.28,49.74Z"/>
  </g>
  <g>
    <path d="M735.57,1103.07v-203.05h186.41v34.12h-152.29v50.48h122.68v33.84h-122.68v50.48h152.29v34.12h-186.41Z"/>
    <path d="M949.89,919.76v-33.84h33.56v33.84h-33.56ZM949.89,1103.07v-163.57h33.56v163.57h-33.56Z"/>
    <path d="M1036.47,1167.65v-33.84h99.55c1.31,0,2.49-.52,3.53-1.55,1.03-1.04,1.55-2.3,1.55-3.81v-25.38h-94.75c-6.96,0-13.25-1.69-18.89-5.08-5.64-3.38-10.2-7.94-13.68-13.68-3.48-5.73-5.22-12.08-5.22-19.03v-87.99c0-6.77,1.74-13.02,5.22-18.75,3.48-5.73,8.08-10.34,13.82-13.82,5.73-3.48,11.99-5.22,18.75-5.22h90.81c6.95,0,13.3,1.74,19.03,5.22,5.73,3.48,10.25,8.09,13.54,13.82,3.29,5.74,4.94,11.98,4.94,18.75v152.57c0,6.95-1.65,13.3-4.94,19.03-3.29,5.73-7.8,10.3-13.54,13.68-5.74,3.39-12.08,5.08-19.03,5.08h-100.68ZM1047.47,1069.51h88.55c1.31,0,2.49-.52,3.53-1.55,1.03-1.03,1.55-2.3,1.55-3.81v-85.73c0-1.5-.52-2.77-1.55-3.81-1.04-1.03-2.21-1.55-3.53-1.55h-88.55c-1.51,0-2.78.52-3.81,1.55-1.04,1.04-1.55,2.3-1.55,3.81v85.73c0,1.5.51,2.77,1.55,3.81,1.03,1.04,2.3,1.55,3.81,1.55Z"/>
    <path d="M1204.83,1103.07v-163.57h128.6c6.77,0,13.02,1.74,18.75,5.22,5.73,3.48,10.29,8.09,13.68,13.82,3.39,5.74,5.08,11.98,5.08,18.75v125.78h-33.56v-124.65c0-1.5-.52-2.77-1.55-3.81-1.04-1.03-2.21-1.55-3.53-1.55h-88.55c-1.5,0-2.78.52-3.81,1.55-1.04,1.04-1.55,2.3-1.55,3.81v124.65h-33.56Z"/>
    <path d="M1414.79,1097.85c-5.74-3.48-10.34-8.08-13.82-13.82-3.48-5.73-5.22-11.99-5.22-18.75v-87.99c0-6.77,1.74-13.02,5.22-18.75,3.48-5.73,8.08-10.34,13.82-13.82,5.73-3.48,11.98-5.22,18.75-5.22h90.53c6.95,0,13.3,1.69,19.03,5.08,5.73,3.39,10.3,7.95,13.68,13.68,3.38,5.74,5.07,12.08,5.07,19.04v60.92h-132.54v25.94c0,1.5.52,2.77,1.55,3.81,1.03,1.04,2.3,1.55,3.81,1.55h127.19v33.56h-128.31c-6.77,0-13.02-1.74-18.75-5.22ZM1429.32,1007.46h98.98v-29.05c0-1.5-.52-2.77-1.55-3.81-1.04-1.03-2.3-1.55-3.81-1.55h-88.27c-1.51,0-2.78.52-3.81,1.55-1.03,1.04-1.55,2.3-1.55,3.81v29.05Z"/>
    <path d="M1584.14,1103.07v-7.61l62.04-75.58-62.04-72.76v-7.61h37.79l46.25,54.43,45.97-54.43h37.79v7.61l-62.04,72.76,62.32,75.58v7.61h-37.79l-46.25-56.69-46.25,56.69h-37.79Z"/>
  </g>
</svg>